<svg width="80" height="16" viewBox="0 0 80 16" fill="none" xmlns="http://www.w3.org/2000/svg">
<path d="M8.00001 11.5166L5.23334 13.1833C5.11112 13.2611 4.98334 13.2944 4.85001 13.2833C4.71667 13.2722 4.60001 13.2277 4.50001 13.15C4.40001 13.0722 4.32223 12.9751 4.26667 12.8586C4.21112 12.7422 4.20001 12.6115 4.23334 12.4666L4.96667 9.31663L2.51667 7.19997C2.40556 7.09997 2.33623 6.98597 2.30867 6.85797C2.28112 6.72997 2.28934 6.60508 2.33334 6.4833C2.37734 6.36152 2.44401 6.26152 2.53334 6.1833C2.62267 6.10508 2.74489 6.05508 2.90001 6.0333L6.13334 5.74997L7.38334 2.7833C7.43889 2.64997 7.52512 2.54997 7.64201 2.4833C7.75889 2.41663 7.87823 2.3833 8.00001 2.3833C8.12178 2.3833 8.24112 2.41663 8.35801 2.4833C8.47489 2.54997 8.56112 2.64997 8.61667 2.7833L9.86667 5.74997L13.1 6.0333C13.2556 6.05552 13.3778 6.10552 13.4667 6.1833C13.5556 6.26108 13.6222 6.36108 13.6667 6.4833C13.7111 6.60552 13.7196 6.73063 13.692 6.85863C13.6644 6.98663 13.5949 7.10041 13.4833 7.19997L11.0333 9.31663L11.7667 12.4666C11.8 12.6111 11.7889 12.7417 11.7333 12.8586C11.6778 12.9755 11.6 13.0726 11.5 13.15C11.4 13.2273 11.2833 13.2717 11.15 13.2833C11.0167 13.2949 10.8889 13.2615 10.7667 13.1833L8.00001 11.5166Z" fill="#F7BA59"/>
<path d="M24 11.5166L21.2333 13.1833C21.1111 13.2611 20.9833 13.2944 20.85 13.2833C20.7167 13.2722 20.6 13.2277 20.5 13.15C20.4 13.0722 20.3222 12.9751 20.2667 12.8586C20.2111 12.7422 20.2 12.6115 20.2333 12.4666L20.9667 9.31663L18.5167 7.19997C18.4056 7.09997 18.3362 6.98597 18.3087 6.85797C18.2811 6.72997 18.2893 6.60508 18.3333 6.4833C18.3773 6.36152 18.444 6.26152 18.5333 6.1833C18.6227 6.10508 18.7449 6.05508 18.9 6.0333L22.1333 5.74997L23.3833 2.7833C23.4389 2.64997 23.5251 2.54997 23.642 2.4833C23.7589 2.41663 23.8782 2.3833 24 2.3833C24.1218 2.3833 24.2411 2.41663 24.358 2.4833C24.4749 2.54997 24.5611 2.64997 24.6167 2.7833L25.8667 5.74997L29.1 6.0333C29.2556 6.05552 29.3778 6.10552 29.4667 6.1833C29.5556 6.26108 29.6222 6.36108 29.6667 6.4833C29.7111 6.60552 29.7196 6.73063 29.692 6.85863C29.6644 6.98663 29.5949 7.10041 29.4833 7.19997L27.0333 9.31663L27.7667 12.4666C27.8 12.6111 27.7889 12.7417 27.7333 12.8586C27.6778 12.9755 27.6 13.0726 27.5 13.15C27.4 13.2273 27.2833 13.2717 27.15 13.2833C27.0167 13.2949 26.8889 13.2615 26.7667 13.1833L24 11.5166Z" fill="#F7BA59"/>
<path d="M40 11.5166L37.2333 13.1833C37.1111 13.2611 36.9833 13.2944 36.85 13.2833C36.7167 13.2722 36.6 13.2277 36.5 13.15C36.4 13.0722 36.3222 12.9751 36.2667 12.8586C36.2111 12.7422 36.2 12.6115 36.2333 12.4666L36.9667 9.31663L34.5167 7.19997C34.4056 7.09997 34.3362 6.98597 34.3087 6.85797C34.2811 6.72997 34.2893 6.60508 34.3333 6.4833C34.3773 6.36152 34.444 6.26152 34.5333 6.1833C34.6227 6.10508 34.7449 6.05508 34.9 6.0333L38.1333 5.74997L39.3833 2.7833C39.4389 2.64997 39.5251 2.54997 39.642 2.4833C39.7589 2.41663 39.8782 2.3833 40 2.3833C40.1218 2.3833 40.2411 2.41663 40.358 2.4833C40.4749 2.54997 40.5611 2.64997 40.6167 2.7833L41.8667 5.74997L45.1 6.0333C45.2556 6.05552 45.3778 6.10552 45.4667 6.1833C45.5556 6.26108 45.6222 6.36108 45.6667 6.4833C45.7111 6.60552 45.7196 6.73063 45.692 6.85863C45.6644 6.98663 45.5949 7.10041 45.4833 7.19997L43.0333 9.31663L43.7667 12.4666C43.8 12.6111 43.7889 12.7417 43.7333 12.8586C43.6778 12.9755 43.6 13.0726 43.5 13.15C43.4 13.2273 43.2833 13.2717 43.15 13.2833C43.0167 13.2949 42.8889 13.2615 42.7667 13.1833L40 11.5166Z" fill="#F7BA59"/>
<path d="M56 11.5166L53.2333 13.1833C53.1111 13.2611 52.9833 13.2944 52.85 13.2833C52.7167 13.2722 52.6 13.2277 52.5 13.15C52.4 13.0722 52.3222 12.9751 52.2667 12.8586C52.2111 12.7422 52.2 12.6115 52.2333 12.4666L52.9667 9.31663L50.5167 7.19997C50.4056 7.09997 50.3362 6.98597 50.3087 6.85797C50.2811 6.72997 50.2893 6.60508 50.3333 6.4833C50.3773 6.36152 50.444 6.26152 50.5333 6.1833C50.6227 6.10508 50.7449 6.05508 50.9 6.0333L54.1333 5.74997L55.3833 2.7833C55.4389 2.64997 55.5251 2.54997 55.642 2.4833C55.7589 2.41663 55.8782 2.3833 56 2.3833C56.1218 2.3833 56.2411 2.41663 56.358 2.4833C56.4749 2.54997 56.5611 2.64997 56.6167 2.7833L57.8667 5.74997L61.1 6.0333C61.2556 6.05552 61.3778 6.10552 61.4667 6.1833C61.5556 6.26108 61.6222 6.36108 61.6667 6.4833C61.7111 6.60552 61.7196 6.73063 61.692 6.85863C61.6644 6.98663 61.5949 7.10041 61.4833 7.19997L59.0333 9.31663L59.7667 12.4666C59.8 12.6111 59.7889 12.7417 59.7333 12.8586C59.6778 12.9755 59.6 13.0726 59.5 13.15C59.4 13.2273 59.2833 13.2717 59.15 13.2833C59.0167 13.2949 58.8889 13.2615 58.7667 13.1833L56 11.5166Z" fill="#F7BA59"/>
<path d="M72 11.5166L69.2333 13.1833C69.1111 13.2611 68.9833 13.2944 68.85 13.2833C68.7167 13.2722 68.6 13.2277 68.5 13.15C68.4 13.0722 68.3222 12.9751 68.2667 12.8586C68.2111 12.7422 68.2 12.6115 68.2333 12.4666L68.9667 9.31663L66.5167 7.19997C66.4056 7.09997 66.3362 6.98597 66.3087 6.85797C66.2811 6.72997 66.2893 6.60508 66.3333 6.4833C66.3773 6.36152 66.444 6.26152 66.5333 6.1833C66.6227 6.10508 66.7449 6.05508 66.9 6.0333L70.1333 5.74997L71.3833 2.7833C71.4389 2.64997 71.5251 2.54997 71.642 2.4833C71.7589 2.41663 71.8782 2.3833 72 2.3833C72.1218 2.3833 72.2411 2.41663 72.358 2.4833C72.4749 2.54997 72.5611 2.64997 72.6167 2.7833L73.8667 5.74997L77.1 6.0333C77.2556 6.05552 77.3778 6.10552 77.4667 6.1833C77.5556 6.26108 77.6222 6.36108 77.6667 6.4833C77.7111 6.60552 77.7196 6.73063 77.692 6.85863C77.6644 6.98663 77.5949 7.10041 77.4833 7.19997L75.0333 9.31663L75.7667 12.4666C75.8 12.6111 75.7889 12.7417 75.7333 12.8586C75.6778 12.9755 75.6 13.0726 75.5 13.15C75.4 13.2273 75.2833 13.2717 75.15 13.2833C75.0167 13.2949 74.8889 13.2615 74.7667 13.1833L72 11.5166Z" fill="#F7BA59"/>
</svg>
