<svg width="16" height="16" viewBox="0 0 16 16" fill="none" xmlns="http://www.w3.org/2000/svg">
<g clip-path="url(#clip0_1167_2241)">
<path d="M11.8559 3.98857C11.8284 3.35866 11.7907 2.72925 11.7427 2.10057C11.7227 1.83442 11.6079 1.58428 11.4192 1.39555C11.2304 1.20682 10.9803 1.09203 10.7142 1.072C7.87004 0.851653 5.01314 0.851653 2.16902 1.072C1.90287 1.09203 1.65273 1.20682 1.464 1.39555C1.27527 1.58428 1.16047 1.83442 1.14044 2.10057C0.919982 4.93362 0.919982 7.77952 1.14044 10.6126C1.16047 10.8787 1.27527 11.1289 1.464 11.3176C1.65273 11.5063 1.90287 11.6211 2.16902 11.6411C2.83111 11.6907 3.48483 11.7291 4.13016 11.7566" stroke="white" stroke-width="1.5" stroke-linecap="round" stroke-linejoin="round"/>
<path d="M7.15406 9.35998H11.9724M9.56206 6.9497V11.768M4.26149 13.6148C4.28152 13.881 4.39632 14.1311 4.58505 14.3199C4.77378 14.5086 5.02392 14.6234 5.29006 14.6434C8.13418 14.8638 10.9911 14.8638 13.8352 14.6434C14.1014 14.6234 14.3515 14.5086 14.5402 14.3199C14.7289 14.1311 14.8437 13.881 14.8638 13.6148C15.0842 10.7822 15.0842 7.93666 14.8638 5.10399C14.8437 4.83784 14.7289 4.5877 14.5402 4.39897C14.3515 4.21024 14.1014 4.09544 13.8352 4.07541C10.9911 3.85507 8.13418 3.85507 5.29006 4.07541C5.02392 4.09544 4.77378 4.21024 4.58505 4.39897C4.39632 4.5877 4.28152 4.83784 4.26149 5.10399C4.04109 7.93666 4.04109 10.7822 4.26149 13.6148Z" stroke="white" stroke-width="1.5" stroke-linecap="round" stroke-linejoin="round"/>
</g>
<defs>
<clipPath id="clip0_1167_2241">
<rect width="16" height="16" fill="white"/>
</clipPath>
</defs>
</svg>
