<svg width="24" height="24" viewBox="0 0 24 24" fill="none" xmlns="http://www.w3.org/2000/svg">
<path d="M12 22.2453C17.595 22.2453 22.2454 17.6047 22.2454 11.9998C22.2454 6.40482 17.5847 1.75439 11.9897 1.75439C6.38529 1.75439 1.755 6.40482 1.755 11.9998C1.755 17.6047 6.39515 22.2453 12 22.2453ZM10.614 17.1525C10.2729 17.1525 10.0114 17.0021 9.72043 16.6605L6.82758 13.0845C6.67672 12.8938 6.58629 12.6525 6.58629 12.4318C6.58629 11.9595 6.95786 11.5983 7.39972 11.5983C7.69115 11.5983 7.93243 11.7084 8.17329 12.02L10.5741 15.1237L15.2447 7.64082C15.4359 7.32925 15.6969 7.17839 15.9579 7.17839C16.4001 7.17839 16.8321 7.46982 16.8321 7.95197C16.8321 8.17268 16.7014 8.41397 16.5707 8.61497L11.4677 16.6605C11.2466 16.9918 10.9654 17.1525 10.614 17.1525Z" fill="#521280"/>
</svg>
