<svg width="24" height="24" viewBox="0 0 24 24" fill="none" xmlns="http://www.w3.org/2000/svg">
<path d="M15 6H13.5C13.5 5.00544 13.1049 4.05161 12.4017 3.34835C11.6984 2.64509 10.7446 2.25 9.75 2.25C8.75544 2.25 7.80161 2.64509 7.09835 3.34835C6.39509 4.05161 6 5.00544 6 6H4.5C4.5 4.60761 5.05312 3.27226 6.03769 2.28769C7.02226 1.30312 8.35761 0.75 9.75 0.75C11.1424 0.75 12.4777 1.30312 13.4623 2.28769C14.4469 3.27226 15 4.60761 15 6Z" fill="white"/>
<path d="M18.75 11.25C18.3625 11.2514 17.9823 11.3549 17.6475 11.55C17.4453 11.2293 17.1653 10.9649 16.8336 10.7813C16.5019 10.5977 16.1291 10.501 15.75 10.5C15.3625 10.5014 14.9823 10.6049 14.6475 10.8C14.3746 10.3706 13.9643 10.0464 13.4835 9.88026C13.0027 9.71408 12.4797 9.71575 12 9.885V6C12 5.40326 11.7629 4.83097 11.341 4.40901C10.919 3.98705 10.3467 3.75 9.75 3.75C9.15326 3.75 8.58097 3.98705 8.15901 4.40901C7.73705 4.83097 7.5 5.40326 7.5 6V14.325L5.8275 13.185C5.44409 12.8995 4.97804 12.7467 4.5 12.75C4.05373 12.7489 3.61722 12.8805 3.24596 13.1282C2.8747 13.3758 2.58546 13.7282 2.41501 14.1407C2.24457 14.5531 2.20063 15.0069 2.28877 15.4444C2.37691 15.8819 2.59315 16.2832 2.91 16.5975L8.91 22.0725C9.75945 22.8328 10.86 23.2522 12 23.25H15.75C17.1424 23.25 18.4777 22.6969 19.4623 21.7123C20.4469 20.7277 21 19.3924 21 18V13.5C21 12.9033 20.7629 12.331 20.341 11.909C19.919 11.4871 19.3467 11.25 18.75 11.25ZM19.5 18C19.5 18.9946 19.1049 19.9484 18.4017 20.6516C17.6984 21.3549 16.7446 21.75 15.75 21.75H12C11.2419 21.7592 10.5063 21.4926 9.93 21L3.9675 15.525C3.82894 15.3853 3.75083 15.1968 3.75 15C3.75 14.8607 3.78879 14.7242 3.86201 14.6057C3.93524 14.4872 4.04001 14.3915 4.16459 14.3292C4.28917 14.2669 4.42863 14.2405 4.56735 14.253C4.70608 14.2655 4.83857 14.3164 4.95 14.4L9 17.175V6C9 5.80109 9.07902 5.61032 9.21967 5.46967C9.36032 5.32902 9.55109 5.25 9.75 5.25C9.94891 5.25 10.1397 5.32902 10.2803 5.46967C10.421 5.61032 10.5 5.80109 10.5 6V14.25H12V12C12 11.8011 12.079 11.6103 12.2197 11.4697C12.3603 11.329 12.5511 11.25 12.75 11.25C12.9489 11.25 13.1397 11.329 13.2803 11.4697C13.421 11.6103 13.5 11.8011 13.5 12V14.25H15V12.75C15 12.5511 15.079 12.3603 15.2197 12.2197C15.3603 12.079 15.5511 12 15.75 12C15.9489 12 16.1397 12.079 16.2803 12.2197C16.421 12.3603 16.5 12.5511 16.5 12.75V14.25H18V13.5C18 13.3011 18.079 13.1103 18.2197 12.9697C18.3603 12.829 18.5511 12.75 18.75 12.75C18.9489 12.75 19.1397 12.829 19.2803 12.9697C19.421 13.1103 19.5 13.3011 19.5 13.5V18Z" fill="white"/>
</svg>
