<svg width="27" height="27" viewBox="0 0 27 27" fill="none" xmlns="http://www.w3.org/2000/svg">
<path d="M17.5323 8.76605C18.4042 8.76605 19.2404 9.1124 19.8569 9.7289C20.4734 10.3454 20.8197 11.1816 20.8197 12.0534V20.8198C20.8197 21.6917 20.4734 22.5278 19.8569 23.1443C19.2404 23.7608 18.4042 24.1072 17.5323 24.1072H7.6702C6.79833 24.1072 5.96217 23.7608 5.34566 23.1443C4.72916 22.5278 4.38281 21.6917 4.38281 20.8198V12.0534C4.38281 11.1816 4.72916 10.3454 5.34566 9.7289C5.96217 9.1124 6.79833 8.76605 7.6702 8.76605V7.12236C7.6702 4.38287 9.86179 2.19128 12.6013 2.19128C15.3408 2.19128 17.5323 4.38287 17.5323 7.12236V8.76605ZM7.6702 9.86185C7.08895 9.86185 6.53151 10.0927 6.12051 10.5037C5.70951 10.9148 5.47861 11.4722 5.47861 12.0534V20.8198C5.47861 21.401 5.70951 21.9585 6.12051 22.3695C6.53151 22.7805 7.08895 23.0114 7.6702 23.0114H17.5323C18.1136 23.0114 18.671 22.7805 19.082 22.3695C19.493 21.9585 19.7239 21.401 19.7239 20.8198V12.0534C19.7239 11.4722 19.493 10.9148 19.082 10.5037C18.671 10.0927 18.1136 9.86185 17.5323 9.86185H7.6702ZM16.4366 8.76605V7.12236C16.4366 6.10518 16.0325 5.12966 15.3132 4.41041C14.594 3.69115 13.6185 3.28708 12.6013 3.28708C11.5841 3.28708 10.6086 3.69115 9.88932 4.41041C9.17006 5.12966 8.76599 6.10518 8.76599 7.12236V8.76605H16.4366ZM12.6013 15.3408C12.1653 15.3408 11.7473 15.514 11.439 15.8222C11.1308 16.1305 10.9576 16.5486 10.9576 16.9845C10.9576 17.4204 11.1308 17.8385 11.439 18.1468C11.7473 18.455 12.1653 18.6282 12.6013 18.6282C13.0372 18.6282 13.4553 18.455 13.7635 18.1468C14.0718 17.8385 14.245 17.4204 14.245 16.9845C14.245 16.5486 14.0718 16.1305 13.7635 15.8222C13.4553 15.514 13.0372 15.3408 12.6013 15.3408ZM12.6013 14.245C13.3278 14.245 14.0246 14.5336 14.5384 15.0474C15.0521 15.5612 15.3408 16.258 15.3408 16.9845C15.3408 17.7111 15.0521 18.4079 14.5384 18.9216C14.0246 19.4354 13.3278 19.724 12.6013 19.724C11.8747 19.724 11.1779 19.4354 10.6642 18.9216C10.1504 18.4079 9.86179 17.7111 9.86179 16.9845C9.86179 16.258 10.1504 15.5612 10.6642 15.0474C11.1779 14.5336 11.8747 14.245 12.6013 14.245Z" fill="white"/>
</svg>
