<svg width="110" height="52" viewBox="0 0 110 52" fill="none" xmlns="http://www.w3.org/2000/svg">
<path fill-rule="evenodd" clip-rule="evenodd" d="M9.20017 46.8799C9.46045 46.8991 9.77843 46.9476 10.042 46.9805C9.81915 47.9293 8.92734 50.9084 8.59763 51.7441C8.40909 51.7604 7.83723 51.8065 7.73239 51.7139C7.29572 51.3277 6.86636 49.3454 6.66013 48.7412L6.59567 48.6855C6.2657 48.847 5.97168 51.2489 5.53513 51.6221C4.55401 52.5107 4.24085 50.623 4.02145 49.959C3.7398 49.1072 3.37324 47.9657 3.25192 47.0664C3.22472 46.8643 3.87772 46.9428 3.99899 46.9678C4.33753 47.2621 4.98751 49.7001 5.19724 50.3135C5.44039 49.4577 5.86694 47.5263 6.35739 46.8818C6.60147 46.885 6.67099 46.8897 6.9111 46.9404C7.20567 47.1049 7.95732 49.673 8.15134 50.2402C8.41591 49.1781 8.76387 47.8609 9.20017 46.8799ZM41.2968 46.8916C41.757 46.8757 42.4328 46.9089 42.8252 47.1602C43.1296 47.3553 43.2915 47.7893 43.0595 48.0996C42.659 48.3492 41.88 47.8449 41.3261 47.8916C40.0291 48.0014 39.854 49.8737 40.7422 50.5713C41.5125 51.1765 42.1881 50.5396 42.9931 50.4531L43.0215 50.4502C43.2194 50.5755 43.1552 50.5046 43.2578 50.7285C43.2627 50.8883 43.2378 51.0126 43.1406 51.1445C42.4879 52.0301 40.9762 51.9736 40.1396 51.3818C39.6133 51.0056 39.2635 50.4306 39.1718 49.79C38.9503 48.3438 39.8426 47.1001 41.2968 46.8916ZM68.5312 46.8975C69.1066 46.9034 70.3852 46.88 70.1562 47.8096C70.1134 48.0208 69.6673 47.9626 69.5088 47.9209C69.0822 47.8089 68.0336 47.5751 67.8388 48.2002C68.1061 49.0223 70.4959 48.991 70.4922 50.2832C70.4883 51.4802 69.4363 51.7643 68.4912 51.8125C67.8711 51.7664 66.5306 51.6809 66.9326 50.6992C67.2621 50.4742 68.2152 50.929 68.6406 50.8965C68.9559 50.8723 69.4427 50.7601 69.4004 50.3604C68.8978 49.6712 66.4747 49.6883 66.831 48.1455C67.0277 47.2918 67.7497 46.9824 68.5312 46.8975ZM56.8554 46.8828C58.2143 46.8352 59.3554 47.8967 59.4052 49.2559C59.455 50.6149 58.3958 51.758 57.0371 51.8105C55.675 51.863 54.5281 50.7998 54.4775 49.4375C54.4277 48.075 55.4933 46.9307 56.8554 46.8828ZM76.2383 46.9551C76.7958 46.8966 77.6759 46.8676 78.2002 47.082C78.4032 47.1652 78.5066 47.6454 78.372 47.8574C77.8861 48.2205 76.8022 47.4412 76.2773 47.9941C76.2174 48.2168 76.2335 48.2674 76.2705 48.4854C76.7047 49.1621 79.3267 48.9274 78.6875 50.7021C78.3752 51.5698 77.9186 51.6925 77.0859 51.8027C76.5616 51.8105 75.8374 51.7952 75.4033 51.4707C75.1659 51.2933 74.9361 51.0164 75.1338 50.7236C75.8337 50.3436 77.644 51.4372 77.6709 50.375C77.3765 49.7995 74.8035 49.6665 75.1093 48.1963C75.2575 47.4838 75.5652 47.1554 76.2383 46.9551ZM70.5566 46.9297C70.7751 46.9179 71.186 46.8859 71.373 46.9502C72.0466 47.1819 72.5686 48.6562 72.8828 49.335C73.1024 48.6826 73.6967 46.889 74.5683 46.917C74.7209 46.922 74.7292 46.9616 74.8095 47.0654C74.8466 47.4547 74.2539 48.2721 74.0215 48.6992C73.3241 50.0379 73.2558 50.2684 73.1894 51.7998C72.9009 51.8106 72.5608 51.7973 72.2685 51.793C72.25 48.9102 71.4231 49.1287 70.5566 46.9297ZM12.4883 46.8955C13.8437 46.7353 15.071 47.7088 15.2226 49.0654C15.3742 50.4221 14.3924 51.6431 13.0351 51.7861C11.69 51.9278 10.4823 50.9567 10.332 49.6123C10.1817 48.268 11.1451 47.0545 12.4883 46.8955ZM37.4492 46.9287C37.7654 46.9066 38.0935 46.9279 38.4111 46.9414L38.4101 47.9668C38.4055 48.9534 38.5995 50.5657 37.8408 51.2598C37.1236 51.9854 35.5237 51.9909 34.8623 51.1904C34.1689 50.3507 34.3052 48.0131 34.3818 46.9609C34.7063 46.9296 35.1025 46.9324 35.4336 46.9258C35.4251 47.5328 35.2727 50.2068 35.6992 50.5195C37.7933 52.0507 37.3849 47.9557 37.4492 46.9287ZM18.8095 46.8877C19.0501 46.8885 19.1738 46.875 19.3965 46.9678C19.692 47.2818 20.2952 49.7661 20.4189 50.332C20.8917 49.1468 21.1559 48.1672 21.4883 46.9326H22.4404C22.133 48.3321 21.4878 50.3902 21.042 51.7783C20.6646 51.7996 20.3183 51.7691 19.9424 51.7441C19.6548 50.7368 19.3373 49.7381 18.9892 48.75C18.7718 48.9085 18.1245 51.3247 18.0068 51.7451C17.6192 51.7695 17.3165 51.7528 16.9306 51.7344C16.4188 50.2592 15.9143 48.4492 15.4668 46.9355C15.8268 46.9346 16.2043 46.9513 16.5654 46.9619C16.7395 47.8594 17.248 49.2997 17.5136 50.2891C17.7206 49.5984 18.3434 47.2024 18.8095 46.8877ZM45.9785 46.8926C46.1141 46.9001 46.3202 46.8918 46.4404 46.9561C46.7774 47.1368 48.2078 51.1572 48.4023 51.7705C47.3112 51.7931 47.3002 51.7061 46.9062 50.7256L45.8183 50.7002L44.9648 50.6846C44.5592 51.779 44.5777 51.811 43.4121 51.7754C43.8565 50.5437 44.9106 48.3457 45.4687 47.0518C45.5308 46.9079 45.8098 46.913 45.9785 46.8926ZM48.2138 46.9512C48.8131 46.9485 51.7036 46.875 52.0752 47.0479C52.4532 48.0789 51.3168 47.8385 50.6806 47.8262C50.6572 48.6769 50.6768 49.6062 50.6797 50.4629C50.6864 50.8809 50.6778 51.3176 50.6748 51.7373C50.3656 51.768 49.959 51.7613 49.6416 51.7656C49.6274 50.4584 49.6269 49.151 49.6396 47.8438C49.1554 47.8498 48.7605 47.8441 48.2773 47.8164C48.2099 47.4422 48.1913 47.3283 48.2138 46.9512ZM53.6777 46.9229C53.6937 48.2313 53.786 50.5206 53.6826 51.7578L52.6562 51.7627C52.6091 50.4741 52.605 48.1707 52.6884 46.9287C53.0055 46.9086 53.3573 46.9195 53.6777 46.9229ZM91.6064 47.4814C91.8484 47.0937 92.2011 46.7191 92.6679 47.0283C92.7778 47.4812 92.7419 51.0908 92.7265 51.7461C92.4302 51.7669 92.0748 51.7599 91.7734 51.7617C91.7587 51.3924 91.7586 50.9986 91.7509 50.627L91.7226 48.9316C91.351 49.6912 90.8346 50.8126 90.2343 51.3984C89.5421 50.7387 89.1792 49.7034 88.5879 48.8496C88.5904 49.8171 88.6377 50.7465 88.6045 51.7207C88.3114 51.7431 87.9152 51.7251 87.6133 51.7197C87.5551 50.5054 87.6196 48.1586 87.6963 46.9258C87.8285 46.92 88.2658 46.9 88.3437 46.9414C88.9235 47.2496 89.9317 49.4154 90.2256 49.9805C90.73 49.226 91.1192 48.2617 91.6064 47.4814ZM60.1875 46.9375C60.3771 46.9247 60.5945 46.9003 60.7822 46.9355C61.1761 47.0105 62.8187 49.4219 63.1591 49.8779C63.05 49.0854 63.1043 47.7467 63.1279 46.9287L64.1113 46.9219C64.1394 48.532 64.1489 50.1426 64.1386 51.7529C63.1214 51.8517 62.7263 51.029 62.1816 50.3076C61.8336 49.8469 61.5019 49.3601 61.164 48.8906C61.1596 49.8016 61.172 50.7653 61.1133 51.6689C60.8055 51.6749 60.4594 51.6588 60.1484 51.6523C60.1076 50.6267 60.0943 47.905 60.1875 46.9375ZM83.3896 46.9258C84.5142 46.9272 85.6391 46.9419 86.7636 46.9697L86.7431 47.8164C85.9456 47.8082 85.1474 47.8202 84.3506 47.8535C84.3467 48.1841 84.3604 48.5448 84.3662 48.8779C84.9233 48.8949 86.1944 48.7013 86.5117 49.1787C86.5461 49.405 86.562 49.3154 86.458 49.5176C86.0832 49.7889 84.9331 49.7009 84.4189 49.7051L84.3984 50.7998C85.1787 50.8229 86.014 50.8163 86.7988 50.8232C86.8102 51.1086 86.7845 51.4471 86.7705 51.7363C85.7546 51.7844 84.4731 51.7355 83.417 51.7461C83.3965 50.1627 83.3615 48.5045 83.3896 46.9258ZM79.1797 46.9619C80.3879 46.9363 81.5964 46.9332 82.8047 46.9541C82.8104 47.2454 82.7788 47.5521 82.7558 47.8438L81.3896 47.8682L81.3965 50.6543L81.3828 51.7539C81.0743 51.7557 80.6915 51.7261 80.3779 51.71C80.3268 50.5133 80.3716 49.0556 80.3799 47.8418C79.9398 47.8472 79.4989 47.8196 79.0595 47.7979C79.0282 47.5664 78.9471 47.1994 79.039 47.0039L79.1797 46.9619ZM25.0332 46.9531C26.11 46.9395 27.1872 46.9474 28.2636 46.9766C28.28 47.2508 28.2796 47.5631 28.2861 47.8408C27.5101 47.8302 26.8233 47.8304 26.0468 47.8604L26.0644 48.9863C26.5927 48.9953 27.748 48.8039 28.0947 49.1465C28.1929 49.3427 28.1712 49.4075 28.1416 49.6182C27.8985 49.8448 26.4856 49.801 26.0361 49.8262C26.0242 50.1524 26.0266 50.4936 26.0244 50.8213L28.4316 50.8379C28.4584 51.1306 28.4424 51.4339 28.4345 51.7285C27.4012 51.787 26.0455 51.7302 24.9863 51.71C24.9426 50.2514 25.002 48.4226 25.0332 46.9531ZM29.2441 46.958C30.2967 46.9358 32.0089 46.7823 32.8379 47.4912C33.8889 48.3905 33.8572 50.049 32.9795 51.0771C31.9539 51.9418 30.589 51.7205 29.2324 51.7236L29.2441 46.958ZM57.2343 47.8672C56.9771 47.7826 56.6835 47.8104 56.4199 47.8535C55.9825 48.1042 55.7054 48.3633 55.5713 48.874C55.4563 49.3138 55.5248 49.7821 55.7617 50.1699C56.1397 50.7747 56.6789 50.8607 57.332 50.7705C57.7675 50.578 58.037 50.374 58.2177 49.9092C58.369 49.5123 58.3526 49.0709 58.1718 48.6865C57.9822 48.2986 57.6443 48.003 57.2343 47.8672ZM12.7041 47.9062C12.1822 47.9322 11.7147 48.238 11.4824 48.7061C11.2503 49.1742 11.289 49.7318 11.584 50.1631C11.8792 50.5944 12.3848 50.8331 12.9052 50.7861C13.6878 50.7154 14.2697 50.031 14.2148 49.2471C14.1599 48.4633 13.4887 47.8675 12.7041 47.9062ZM30.3183 47.8975C30.299 48.8333 30.2718 49.8363 30.3105 50.7715C31.0991 50.7797 31.5825 50.8578 32.2148 50.3691C32.7279 49.6481 32.9158 48.8282 32.0771 48.248C31.5186 47.8617 30.9704 47.8909 30.3183 47.8975ZM45.8799 48.0479C45.6644 48.6491 45.4562 49.2529 45.2558 49.8594L46.04 49.8848C46.2382 49.8792 46.4586 49.9142 46.58 49.8115C46.5066 49.5052 46.081 48.2372 45.8799 48.0479ZM93.2549 18.415C92.9526 18.5592 92.1193 18.9443 91.9404 19.1729C91.3344 19.9482 90.5817 22.0581 90.2509 22.9961C90.2076 23.1211 90.1642 23.2464 90.122 23.3721C87.6366 22.3656 86.4029 21.3748 83.7929 22.6846C82.0713 23.5487 79.7856 24.074 78.0869 25.0928C79.3877 26.3668 81.5757 26.7264 83.3408 27.1006C87.8129 28.0484 93.1253 29.3631 93.1543 34.9258C93.2085 45.2291 76.5822 44.6808 70.9394 39.9219C71.3362 38.8771 72.6164 36.1811 73.1738 35.2363C76.133 37.392 80.0089 38.4118 83.6865 37.9434C85.0862 37.765 87.1616 36.9758 86.8554 35.1426C86.5738 33.4572 83.8937 32.8611 82.5322 32.5137C78.6501 31.5191 74.1235 31.1184 71.9765 27.2178C70.2619 27.9221 68.1241 28.7005 66.3398 29.2373L66.33 31.8555C64.8626 31.8697 63.3948 31.8738 61.9267 31.8672C59.5683 31.8654 59.0947 31.8182 56.873 32.5176L54.1084 33.3828C54.0803 34.798 54.064 36.2134 54.0615 37.6289C58.9059 37.6941 63.7749 37.5813 68.6123 37.6689L68.6826 42.6875C66.5185 42.7426 64.2592 42.7013 62.0849 42.707L47.8359 42.7275C47.7745 40.2322 47.8365 37.6113 47.8769 35.1143C47.0955 35.3928 45.9097 35.7013 45.0771 35.9297C42.8897 36.5297 40.4413 37.2379 38.2246 37.6875C37.5131 39.0136 37.0137 41.2189 36.3857 42.7217C34.3901 42.7271 31.6885 42.811 29.7256 42.7031C29.4419 41.8742 29.0388 40.7686 28.8535 39.9199C26.7099 40.5467 24.135 40.7758 21.9297 41.2334C20.9037 41.4462 19.6615 41.4475 18.664 41.7676C18.5509 42.0653 18.4272 42.357 18.375 42.6709L11.1631 42.6875C8.31112 42.6898 4.25239 43.0231 1.62302 41.9805C-3.2447 40.0503 4.2241 35.7504 5.94528 34.7646C6.06636 34.9054 6.09612 34.9498 6.18649 35.1123C4.64097 36.384 1.11501 39.0853 5.39743 39.7451C9.15839 40.3245 13.2265 39.7918 16.9892 39.375C24.1987 38.5763 31.2736 37.1202 38.3408 35.4951C41.1097 34.8788 43.8712 34.2271 46.624 33.542C52.196 32.0773 57.7321 30.4782 63.2265 28.7461C73.3235 25.7365 83.2622 22.2173 93.0029 18.2012L93.2549 18.415ZM21.2295 16.7158C21.6678 16.7884 22.8384 16.7738 23.3252 16.7754C24.5455 16.7854 25.766 16.782 26.9863 16.7656C28.4009 20.3824 29.465 24.2948 30.7939 27.9658C31.556 30.0712 32.3061 32.2971 32.9599 34.4326C33.4024 33.1671 33.833 31.7148 34.2646 30.4189L38.789 16.7637L44.9697 16.7822C44.2742 19.3504 43.059 22.5044 42.1933 25.0742C41.1962 28.0344 40.2091 31.3686 39.123 34.2705C38.3785 34.466 37.1326 34.6427 36.3174 34.8203C33.4875 35.4651 30.6458 36.0571 27.7939 36.5957C27.4492 35.1604 26.6157 32.9384 26.1191 31.4971C25.5849 29.9466 24.9188 27.6828 24.2929 26.2197C24.2024 26.0064 24.0901 25.8058 23.9804 25.6016C23.4993 27.4376 22.7442 29.6037 22.1396 31.4121L20.0341 37.8135C19.1695 38.0935 17.2027 38.2847 16.248 38.3896C14.4096 38.5917 12.4596 38.8179 10.6152 38.9209C9.89971 37.0202 9.23056 35.0066 8.56149 33.0791C7.48214 29.9949 6.43156 26.9007 5.41013 23.7969C4.74502 21.7497 3.66613 18.7558 3.16208 16.7705C5.25713 16.8118 7.45756 16.783 9.56149 16.7881C11.1004 21.245 12.4336 25.7901 14.0322 30.2305C14.5098 31.5571 15.0223 32.9688 15.3291 34.3369C16.927 30.0555 18.226 25.5468 19.7539 21.2324C20.266 19.7863 20.8173 18.1888 21.2295 16.7158ZM7.60544 34.0244C7.26186 34.3422 6.59146 34.8371 6.18649 35.1113C6.09612 34.9488 6.06637 34.9044 5.94528 34.7637C6.52156 34.4607 6.97212 34.1992 7.60544 34.0244ZM47.833 16.7266C48.3193 16.7863 49.485 16.7608 50.0156 16.7617L54.0703 16.7676L67.998 16.7793C68.0255 18.446 68.0251 20.1136 67.997 21.7803C63.4848 21.8732 58.6043 21.7889 54.0722 21.7822C54.085 23.5532 54.0874 25.3247 54.081 27.0957L55.5185 27.1035C58.6541 27.1206 61.8718 27.0406 64.9863 27.0908C62.7614 27.882 61.0485 28.3449 58.8076 29.0107C55.1714 30.1179 51.5098 31.1407 47.8261 32.0781C47.7772 29.9664 47.8135 27.753 47.8144 25.6338L47.833 16.7266ZM81.5332 16.3027C85.0966 16.1026 87.8108 16.7344 90.9853 18.2314C88.7017 18.9256 86.3537 19.9891 84.0791 20.7539C83.0095 21.1133 82.0413 21.2118 80.957 21.4717C80.0515 21.6887 79.3152 22.0603 78.5009 22.4902C76.7135 23.495 73.5092 24.4251 71.4951 25.0273C71.6139 18.941 75.9998 16.6756 81.5332 16.3027ZM98.456 15.9209C98.048 16.2016 97.6165 16.4581 97.1523 16.6338C97.1489 16.6109 97.1479 16.596 97.1455 16.5859L97.1347 16.5645C97.1449 16.5757 97.1457 16.5878 97.1523 16.6328C95.8713 17.2649 94.571 17.859 93.2549 18.4141L93.0029 18.2002L97.0595 16.499L97.2109 16.417C97.5845 16.2262 98.0872 16.0487 98.456 15.9209ZM108.649 10.3535C108.915 10.3472 109.149 10.3584 109.352 10.542C109.694 11.4147 106.929 12.5277 106.392 12.9668C104.793 14.2715 105.089 17.2511 103.304 18.3936C103.276 17.6225 103.567 15.2722 103.626 14.3301C101.868 15.2747 101.197 14.9283 99.8154 16.7471C99.6468 16.3525 99.4666 15.9626 99.2744 15.5791C98.9736 15.1629 97.9355 14.3651 97.957 13.9473L98.0722 13.8662C98.6061 13.8232 99.5768 14.2542 100.111 14.458C101.012 14.1036 101.871 13.5256 102.829 13.1494C102.148 12.8179 99.5256 11.8515 99.3252 11.4424L99.3789 11.335C100.424 10.7465 103.447 11.6784 104.713 11.9648C106.087 11.3042 107.026 10.5861 108.649 10.3535ZM94.1338 10.2969C93.5079 12.4629 92.8839 14.9269 92.1572 17.0391C86.9142 14.5157 82.3797 14.0875 76.7881 15.6133C75.5766 15.9851 73.3064 16.8038 72.164 17.0059C72.9559 16.6613 73.7789 16.3857 74.5791 16.0254C75.4167 15.6485 76.0998 15.269 76.9004 14.8232C77.5977 14.3317 78.2942 13.8346 78.9131 13.2451C80.8787 11.3746 90.2198 0.817858 91.6318 0.279297C92.5424 -0.0672744 96.0102 0.0416539 97.1836 0L94.1338 10.2969ZM76.4892 15.5977C76.4506 15.6059 76.4104 15.6152 76.3691 15.625C76.4104 15.6152 76.4506 15.6059 76.4892 15.5977Z" fill="white"/>
</svg>
